<svg height="512" viewBox="0 0 128 128" width="512" xmlns="http://www.w3.org/2000/svg"><g id="Circle_Grid" data-name="Circle Grid"><circle cx="64" cy="64" fill="#2cbfae" r="64"/></g><g id="icon"><rect fill="#eeefee" height="68.535" rx="2.109" width="56.234" x="35.883" y="34.465"/><path d="m55.866 30.45h16.268a4.567 4.567 0 0 1 4.566 4.567v4.283a0 0 0 0 1 0 0h-25.4a0 0 0 0 1 0 0v-4.283a4.567 4.567 0 0 1 4.566-4.567z" fill="#62667c"/><path d="m64 21a5.179 5.179 0 0 0 -5.183 5.183v5.195h10.375v-5.195a5.189 5.189 0 0 0 -5.192-5.183zm0 7.466a2.278 2.278 0 1 1 2.283-2.283 2.273 2.273 0 0 1 -2.283 2.283z" fill="#62667c"/><g fill="#dbd8dd"><path d="m40.29 45.151v9.349h9.363v-9.349zm7.444 7.435h-5.525v-5.517h5.526z"/><path d="m54.002 47.567h22.539v1.724h-22.539z"/><path d="m54.002 52.779h33.707v1.724h-33.707z"/><path d="m40.29 59.557v9.353h9.363v-9.353zm7.444 7.435h-5.525v-5.516h5.526z"/><path d="m54.002 61.973h22.539v1.724h-22.539z"/><path d="m54.002 67.186h33.707v1.724h-33.707z"/><path d="m40.29 73.964v9.353h9.363v-9.353zm7.445 7.436h-5.526v-5.518h5.526z"/><path d="m54.002 76.38h22.539v1.724h-22.539z"/><path d="m54.002 81.593h33.707v1.724h-33.707z"/><path d="m40.29 88.37v9.353h9.363v-9.353zm7.444 7.435h-5.525v-5.516h5.526z"/><path d="m54.002 90.787h22.539v1.724h-22.539z"/><path d="m54.002 95.999h33.707v1.724h-33.707z"/></g></g></svg>